<svg width="512" height="512" viewBox="0 0 512 512" fill="none" xmlns="http://www.w3.org/2000/svg">
<rect width="512" height="512" rx="48" fill="#FFF8F4"/>
<circle cx="256" cy="256" r="188" fill="#FFF1EA"/>
<circle cx="256" cy="256" r="172" stroke="#F4D6CB" stroke-width="10" stroke-dasharray="10 16"/>
<rect x="116" y="122" width="280" height="268" rx="30" fill="#FFFFFF" stroke="#EFCFC3" stroke-width="12"/>
<rect x="144" y="152" width="224" height="172" rx="20" fill="#FFF7F2"/>
<circle cx="192" cy="198" r="20" fill="#F7D7C8"/>
<path d="M154 300L218 238C224 232 234 232 240 238L270 268L302 236C309 229 321 229 328 236L358 264V304H154V300Z" fill="#EDC1AE"/>
<path d="M154 304L232 244C239 239 249 240 255 246L281 271L320 234C327 227 339 227 346 234L358 246V324H154V304Z" fill="#DFA18E"/>
<rect x="178" y="344" width="156" height="14" rx="7" fill="#F3DDD3"/>
<g filter="url(#shadow)">
<circle cx="356" cy="352" r="42" fill="#FFFDFC"/>
<circle cx="356" cy="352" r="36" fill="#FFE9DE"/>
<path d="M344 340L368 364" stroke="#C97C68" stroke-width="9" stroke-linecap="round"/>
<path d="M368 340L344 364" stroke="#C97C68" stroke-width="9" stroke-linecap="round"/>
</g>
<defs>
<filter id="shadow" x="302" y="300" width="108" height="108" filterUnits="userSpaceOnUse" color-interpolation-filters="sRGB">
<feFlood flood-opacity="0" result="BackgroundImageFix"/>
<feColorMatrix in="SourceAlpha" type="matrix" values="0 0 0 0 0 0 0 0 0 0 0 0 0 0 0 0 0 0 127 0" result="hardAlpha"/>
<feOffset dy="6"/>
<feGaussianBlur stdDeviation="6"/>
<feColorMatrix type="matrix" values="0 0 0 0 0.862745 0 0 0 0 0.65098 0 0 0 0 0.576471 0 0 0 0.24 0"/>
<feBlend mode="normal" in2="BackgroundImageFix" result="effect1_dropShadow_1_1"/>
<feBlend mode="normal" in="SourceGraphic" in2="effect1_dropShadow_1_1" result="shape"/>
</filter>
</defs>
</svg>
